HIERARCHY
ROOT Hips
{
 OFFSET 0.000000 0.000000 0.000000
 CHANNELS 6 Xposition Yposition Zposition Yrotation Xrotation Zrotation
 JOINT Chest
 {
  OFFSET 0.000000 9.585900 0.002600
  CHANNELS 3 Yrotation Xrotation Zrotation
  JOINT Chest2
  {
   OFFSET 0.000000 9.601200 -0.005300
   CHANNELS 3 Yrotation Xrotation Zrotation
   JOINT Chest3
   {
    OFFSET 0.000000 9.561800 0.000000
    CHANNELS 3 Yrotation Xrotation Zrotation
    JOINT Chest4
    {
     OFFSET 0.000000 9.552100 0.000000
     CHANNELS 3 Yrotation Xrotation Zrotation
     JOINT Neck
     {
      OFFSET 0.000000 14.453000 0.000000
      CHANNELS 3 Yrotation Xrotation Zrotation
      JOINT Head
      {
       OFFSET 0.000000 8.936500 -0.011300
       CHANNELS 3 Yrotation Xrotation Zrotation
       End Site
       {
        OFFSET 0.000000 17.073600 -0.006000
       }
      }
     }
     JOINT RightCollar
     {
      OFFSET -2.921100 9.558500 0.000000
      CHANNELS 3 Yrotation Xrotation Zrotation
      JOINT RightShoulder
      {
       OFFSET -13.519700 0.000000 0.000000
       CHANNELS 3 Yrotation Xrotation Zrotation
       JOINT RightElbow
       {
        OFFSET 0.000000 -29.696600 0.000000
        CHANNELS 3 Yrotation Xrotation Zrotation
        JOINT RightWrist
        {
         OFFSET 0.000000 -24.004700 0.000000
         CHANNELS 3 Yrotation Xrotation Zrotation
         End Site
         {
          OFFSET 0.000000 -17.728500 0.000000
         }
        }
       }
      }
     }
     JOINT LeftCollar
     {
      OFFSET 2.921100 9.558500 0.000000
      CHANNELS 3 Yrotation Xrotation Zrotation
      JOINT LeftShoulder
      {
       OFFSET 13.519700 0.000000 0.000000
       CHANNELS 3 Yrotation Xrotation Zrotation
       JOINT LeftElbow
       {
        OFFSET 0.000000 -29.696600 0.000000
        CHANNELS 3 Yrotation Xrotation Zrotation
        JOINT LeftWrist
        {
         OFFSET 0.000000 -24.004700 0.000000
         CHANNELS 3 Yrotation Xrotation Zrotation
         End Site
         {
          OFFSET 0.000000 -17.728500 0.000000
         }
        }
       }
      }
     }
    }
   }
  }
 }
 JOINT RightHip
 {
  OFFSET -7.771700 -0.012900 -0.001300
  CHANNELS 3 Yrotation Xrotation Zrotation
  JOINT RightKnee
  {
   OFFSET 0.000000 -40.869800 0.001200
   CHANNELS 3 Yrotation Xrotation Zrotation
   JOINT RightAnkle
   {
    OFFSET 0.000000 -39.717900 0.002100
    CHANNELS 3 Yrotation Xrotation Zrotation
    JOINT RightToe
    {
     OFFSET 0.000000 -4.965400 11.033500
     CHANNELS 3 Yrotation Xrotation Zrotation
     End Site
     {
      OFFSET 0.000000 -1.423100 5.872300
     }
    }
   }
  }
 }
 JOINT LeftHip
 {
  OFFSET 7.771700 -0.012900 -0.001300
  CHANNELS 3 Yrotation Xrotation Zrotation
  JOINT LeftKnee
  {
   OFFSET 0.000000 -40.869800 0.001200
   CHANNELS 3 Yrotation Xrotation Zrotation
   JOINT LeftAnkle
   {
    OFFSET 0.000000 -39.717900 0.002100
    CHANNELS 3 Yrotation Xrotation Zrotation
    JOINT LeftToe
    {
     OFFSET 0.000000 -4.965400 11.033500
     CHANNELS 3 Yrotation Xrotation Zrotation
     End Site
     {
      OFFSET 0.000000 -1.423100 5.872300
     }
    }
   }
  }
 }
}
MOTION
Frames: 5
Frame Time: 0.008333
-209.059728 57.665164 -69.038797 159.802104 -7.218717 0.763336 3.030109 6.403870 1.285395 0.118268 0.275443 0.018211 0.222564 0.516455 0.018109 2.671495 6.136281 0.560756 1.379650 17.874821 -1.812213 3.071915 -2.625766 -3.734680 2.365328 7.017869 0.708716 0.334514 -7.241505 -12.408494 -70.873238 -78.670776 107.278468 2.066165 4.723328 -2.166440 -5.609810 6.136757 -3.187595 7.676445 -2.140503 6.409991 57.299819 -69.887308 -97.890024 -1.617610 7.217038 11.668559 -19.102951 -64.373327 9.666005 -31.390398 73.160499 -30.827570 -2.528030 -8.030879 -3.166897 -0.228913 0.772196 -0.100606 -2.495044 -66.924339 17.476296 41.566153 66.875981 34.805728 -17.691282 -13.405569 3.295018 -0.239829 -0.943042 -0.112080
-209.060506 57.666177 -69.042195 159.726542 -7.218639 0.764963 3.117296 6.431484 1.279830 0.119792 0.277148 0.017970 0.225255 0.522351 0.021556 2.696226 6.148784 0.552581 1.365027 17.850905 -1.802960 3.065763 -2.659095 -3.743955 2.313873 6.987884 0.719622 0.329794 -7.246904 -12.375843 -70.848898 -78.676208 107.230547 2.089143 4.715106 -2.123752 -5.644753 6.157122 -3.152159 7.654470 -2.205111 6.389664 57.282981 -69.890699 -97.867431 -1.614298 7.198015 11.670463 -19.048889 -64.365613 9.684665 -31.381586 73.155632 -30.820725 -2.484984 -8.089020 -3.156284 -0.264281 0.833383 -0.117707 -2.430376 -66.926060 17.494446 41.591565 66.900677 34.819209 -17.633111 -13.365600 3.328462 -0.296549 -1.015062 -0.138729
-209.060597 57.667503 -69.045746 159.709300 -7.221286 0.754975 3.154825 6.484886 1.276454 0.126162 0.288518 0.017090 0.216036 0.495063 0.032249 2.717326 6.169440 0.548037 1.340289 17.802033 -1.792900 3.073426 -2.680520 -3.763140 2.262816 6.956675 0.718071 0.317752 -7.253443 -12.330213 -70.867380 -78.701838 107.254076 2.039190 4.712557 -2.150780 -5.670994 6.178387 -3.118510 7.627307 -2.279361 6.365990 57.273941 -69.889884 -97.852910 -1.614919 7.165612 11.650278 -19.060610 -64.354493 9.712447 -31.370217 73.152791 -30.812358 -2.478116 -8.088675 -3.151699 -0.271286 0.833102 -0.123317 -2.423069 -66.924479 17.517590 41.596820 66.914145 34.820442 -17.633590 -13.384215 3.335911 -0.301152 -1.015479 -0.135457
-209.059770 57.669168 -69.050753 159.681658 -7.234150 0.744012 3.186081 6.504649 1.289820 0.137269 0.311062 0.013685 0.219186 0.500365 0.032489 2.769497 6.246153 0.547683 1.324686 17.755671 -1.798284 3.038955 -2.758135 -3.755341 2.184054 6.883306 0.709678 0.291181 -7.266225 -12.273704 -70.902670 -78.735423 107.298782 2.008246 4.713245 -2.165288 -5.723115 6.154287 -3.076484 7.551011 -2.363965 6.350956 57.303190 -69.873443 -97.846216 -1.601136 7.081461 11.555351 -19.058974 -64.333377 9.737893 -31.362651 73.150230 -30.808698 -2.471569 -8.086759 -3.144412 -0.274806 0.830885 -0.129699 -2.390038 -66.909085 17.537870 41.568138 66.931814 34.791336 -17.658906 -13.408299 3.342709 -0.290002 -1.009452 -0.127269
-209.060962 57.670875 -69.056408 159.657157 -7.247386 0.745811 3.223443 6.543162 1.288852 0.143230 0.316104 0.011299 0.222998 0.506376 0.032624 2.807914 6.295220 0.549301 1.311669 17.720630 -1.800855 3.003490 -2.814730 -3.742845 2.115692 6.919343 0.675568 0.251396 -7.352201 -12.182945 -70.784878 -78.723395 107.120696 2.036138 4.693852 -2.116625 -5.762427 6.169265 -3.033086 7.495533 -2.462646 6.330115 57.296321 -69.854413 -97.838188 -1.588246 7.014164 11.505134 -19.033380 -64.316829 9.733130 -31.333348 73.151104 -30.782632 -2.482361 -8.086849 -3.140008 -0.266535 0.831004 -0.131688 -2.357423 -66.893963 17.536747 41.578369 66.944674 34.794405 -17.659668 -13.419480 3.353420 -0.304832 -1.016677 -0.130124
